#!OML:ASF H:\ManfredETheater\Project 1\Capture day 1\Session 1\subject.ASF
:FULLY-SPECIFIED
:DEGREES
225
root -8.15796 17.7392 -24.1137 -174.034 -34.1029 -179.379
lowerback 9.29988 0.116243 -3.73583
upperback -2.44192 -0.221987 1.12257
thorax -7.80096 0.0988367 3.33105
lowerneck -16.2803 -4.70555 -6.07457
upperneck 10.4809 -5.85174 6.0013
head 6.19522 -2.61863 2.304
rclavicle 1.47693e-013 1.77664e-015
rhumerus -36.8248 2.03113 -89.9347
rradius 61.4003
rwrist -2.01654
rhand -28.4282 2.74531
rfingers 7.12502
rthumb -1.79945 -27.2268
lclavicle 1.47693e-013 1.77664e-015
lhumerus -46.852 4.45876 79.6265
lradius 37.537
lwrist -16.7117
lhand -25.054 -5.41719
lfingers 7.12502
lthumb 1.45944 24.5576
rfemur -16.6434 2.26511 19.9772
rtibia 38.2003
rfoot -22.3821 -10.6297
rtoes -19.2339
lfemur -22.8483 -2.37449 -20.4631
ltibia 45.5945
lfoot -25.153 -3.08661
ltoes 10.7048
226
root -8.18882 17.7442 -24.1692 -173.669 -33.9759 -179.555
lowerback 9.22848 0.0944665 -3.88609
upperback -2.46233 -0.26954 1.08961
thorax -7.77785 0.0816952 3.38795
lowerneck -16.2424 -4.6775 -6.04518
upperneck 10.433 -5.826 6.03548
head 6.17239 -2.60353 2.31381
rclavicle 2.12125e-014 1.38901e-014
rhumerus -37.104 2.21647 -90.2027
rradius 61.2401
rwrist -1.81982
rhand -28.3497 2.81868
rfingers 7.12502
rthumb -1.72367 -27.1541
lclavicle 2.12125e-014 1.38901e-014
lhumerus -46.8818 4.44524 79.7124
lradius 37.2299
lwrist -16.9629
lhand -24.8084 -5.53806
lfingers 7.12502
lthumb 1.69658 24.4349
rfemur -16.6422 2.27759 19.8288
rtibia 38.0673
rfoot -22.5103 -10.6075
rtoes -19.2999
lfemur -22.7695 -2.17839 -20.5983
ltibia 45.374
lfoot -25.2559 -3.23266
ltoes 10.8891
227
root -8.21832 17.7489 -24.2247 -173.292 -33.88 -179.753
lowerback 9.16832 0.0641263 -4.05039
upperback -2.47985 -0.330935 1.05035
thorax -7.75672 0.0582677 3.44828
lowerneck -16.2197 -4.65226 -6.00247
upperneck 10.3917 -5.80364 6.0514
head 6.15338 -2.59062 2.31497
rclavicle 2.66263e-015 1.23495e-014
rhumerus -37.3848 2.38985 -90.461
rradius 61.0945
rwrist -1.65507
rhand -28.2676 2.8775
rfingers 7.12502
rthumb -1.64437 -27.0959
lclavicle 2.66263e-015 1.23495e-014
lhumerus -46.8863 4.41946 79.8331
lradius 36.9783
lwrist -17.2578
lhand -24.5845 -5.68623
lfingers 7.12502
lthumb 1.9129 24.2849
rfemur -16.6469 2.2804 19.6623
rtibia 37.9507
rfoot -22.6408 -10.5967
rtoes -19.397
lfemur -22.7077 -1.99319 -20.7504
ltibia 45.1687
lfoot -25.3367 -3.40823
ltoes 11.0899
228
root -8.24659 17.7533 -24.2802 -172.905 -33.8108 -179.967
lowerback 9.10729 0.0228157 -4.22505
upperback -2.49399 -0.408423 1.00553
thorax -7.72977 0.0270672 3.51091
lowerneck -16.1947 -4.62319 -5.9445
upperneck 10.348 -5.77797 6.05694
head 6.13227 -2.57638 2.31075
rclavicle 9.24108e-014 -5.57218e-015
rhumerus -37.6695 2.56179 -90.7183
rradius 60.9633
rwrist -1.52337
rhand -28.1889 2.9189
rfingers 7.12502
rthumb -1.56835 -27.0551
lclavicle 9.24108e-014 -5.57218e-015
lhumerus -46.8695 4.3969 79.9765
lradius 36.7803
lwrist -17.5704
lhand -24.3799 -5.85034
lfingers 7.12502
lthumb 2.11048 24.119
rfemur -16.66 2.27394 19.4824
rtibia 37.8498
rfoot -22.774 -10.5847
rtoes -19.501
lfemur -22.6639 -1.81661 -20.9143
ltibia 44.9794
lfoot -25.3946 -3.60859
ltoes 11.3001
229
root -8.27338 17.7575 -24.3355 -172.509 -33.7652 -180.19
lowerback 9.06028 -0.0214877 -4.39832
upperback -2.50425 -0.490515 0.955515
thorax -7.70603 -0.00663289 3.56794
lowerneck -16.1975 -4.60212 -5.88155
upperneck 10.3104 -5.76165 6.05413
head 6.11785 -2.56656 2.30158
rclavicle 2.97478e-015 -8.94531e-015
rhumerus -37.9488 2.71962 -90.9639
rradius 60.8522
rwrist -1.43613
rhand -28.1159 2.94144
rfingers 7.12502
rthumb -1.49783 -27.033
lclavicle 2.97478e-015 -8.94531e-015
lhumerus -46.8201 4.34667 80.165
lradius 36.6486
lwrist -17.8435
lhand -24.2041 -6.02513
lfingers 7.12502
lthumb 2.28022 23.9424
rfemur -16.685 2.26478 19.2963
rtibia 37.7614
rfoot -22.9012 -10.5786
rtoes -19.6356
lfemur -22.6451 -1.65181 -21.084
ltibia 44.8099
lfoot -25.4282 -3.822
ltoes 11.5157
230
root -8.29874 17.7617 -24.3906 -172.112 -33.7352 -180.414
lowerback 9.02413 -0.0677629 -4.56669
upperback -2.51197 -0.57526 0.902207
thorax -7.68532 -0.0419816 3.6191
lowerneck -16.2025 -4.58416 -5.80833
upperneck 10.2661 -5.75026 6.0436
head 6.10147 -2.55933 2.28774
rclavicle -5.06649e-014 2.08879e-015
rhumerus -38.227 2.87206 -91.2031
rradius 60.7596
rwrist -1.40066
rhand -28.0557 2.94486
rfingers 7.12502
rthumb -1.43967 -27.03
lclavicle -5.06649e-014 2.08879e-015
lhumerus -46.7461 4.26942 80.3933
lradius 36.5813
lwrist -18.0442
lhand -24.0512 -6.21252
lfingers 7.12502
lthumb 2.42795 23.7534
rfemur -16.7192 2.25929 19.1125
rtibia 37.6817
rfoot -23.0202 -10.5761
rtoes -19.791
lfemur -22.6481 -1.49649 -21.2527
ltibia 44.6613
lfoot -25.4407 -4.03499
ltoes 11.7159
231
root -8.32257 17.766 -24.4456 -171.718 -33.7214 -180.621
lowerback 8.99417 -0.11597 -4.71678
upperback -2.51558 -0.660455 0.85001
thorax -7.66346 -0.0785523 3.6611
lowerneck -16.2218 -4.57006 -5.73724
upperneck 10.2219 -5.74401 6.04048
head 6.08807 -2.55392 2.27584
rclavicle 5.10333e-014 -1.85988e-014
rhumerus -38.4983 3.02151 -91.4367
rradius 60.6862
rwrist -1.41779
rhand -28.0146 2.93274
rfingers 7.12502
rthumb -1.39999 -27.0424
lclavicle 5.10333e-014 -1.85988e-014
lhumerus -46.6357 4.17485 80.6588
lradius 36.5715
lwrist -18.1475
lhand -23.9076 -6.36899
lfingers 7.12502
lthumb 2.5666 23.5953
rfemur -16.7646 2.25748 18.9488
rtibia 37.6054
rfoot -23.127 -10.5832
rtoes -19.9797
lfemur -22.679 -1.35805 -21.4036
ltibia 44.536
lfoot -25.433 -4.23592
ltoes 11.8911
